HIERARCHY
ROOT Hips
{
	OFFSET 0.00 0.00 0.00
	CHANNELS 6 Xposition Yposition Zposition Xrotation Yrotation Zrotation
	JOINT RightUpLeg
	{
		OFFSET -3.69398 0.00000 0.00000
		CHANNELS 3 Xrotation Yrotation Zrotation
		JOINT RightLeg
		{
			OFFSET 0.00000 -15.79567 0.00000
			CHANNELS 3 Xrotation Yrotation Zrotation
			JOINT RightFoot
			{
				OFFSET 0.00000 -14.76699 0.00000
				CHANNELS 3 Xrotation Yrotation Zrotation
				JOINT RightToeBase
				{
					OFFSET 0.00000 -1.28446 4.79369
					CHANNELS 3 Xrotation Yrotation Zrotation
					End Site
					{
						OFFSET 0.00000 0.00000 2.95275
					}
				}
			}
		}
	}
	JOINT LeftUpLeg
	{
		OFFSET 3.69398 0.00000 0.00000
		CHANNELS 3 Xrotation Yrotation Zrotation
		JOINT LeftLeg
		{
			OFFSET 0.00000 -15.79567 0.00000
			CHANNELS 3 Xrotation Yrotation Zrotation
			JOINT LeftFoot
			{
				OFFSET 0.00000 -14.76699 0.00000
				CHANNELS 3 Xrotation Yrotation Zrotation
				JOINT LeftToeBase
				{
					OFFSET 0.00000 -1.28446 4.79369
					CHANNELS 3 Xrotation Yrotation Zrotation
					End Site
					{
						OFFSET 0.00000 0.00000 2.95275
					}
				}
			}
		}
	}
	JOINT Spine
	{
		OFFSET 0.00000 2.39296 0.00000
		CHANNELS 3 Xrotation Yrotation Zrotation
		JOINT RightShoulder
		{
			OFFSET 0.00000 13.20741 0.00000
			CHANNELS 3 Xrotation Yrotation Zrotation
			JOINT RightArm
			{
				OFFSET -8.14047 0.00000 0.00000
				CHANNELS 3 Xrotation Yrotation Zrotation
				JOINT RightForeArm
				{
					OFFSET -10.64984 0.00000 0.00000
					CHANNELS 3 Yrotation Zrotation Xrotation
					JOINT RightHand
					{
						OFFSET -8.30462 0.00000 0.00000
						CHANNELS 3 Xrotation Yrotation Zrotation
						End Site
						{
							OFFSET -3.93700 0.00000 0.00000
						}
						JOINT RightHandThumb1
						{
							OFFSET 0.00000 0.00000 0.00000
							CHANNELS 3 Xrotation Zrotation Yrotation
							End Site
							{
								OFFSET 0.00000 0.00000 3.93700
							}
						}
					}
				}
			}
		}
		JOINT LeftShoulder
		{
			OFFSET 0.00000 13.20741 0.00000
			CHANNELS 3 Xrotation Yrotation Zrotation
			JOINT LeftArm
			{
				OFFSET 8.14047 0.00000 0.00000
				CHANNELS 3 Xrotation Yrotation Zrotation
				JOINT LeftForeArm
				{
					OFFSET 10.64984 0.00000 0.00000
					CHANNELS 3 Yrotation Zrotation Xrotation
					JOINT LeftHand
					{
						OFFSET 8.30462 0.00000 0.00000
						CHANNELS 3 Xrotation Yrotation Zrotation
						End Site
						{
							OFFSET 3.93700 0.00000 0.00000
						}
						JOINT LeftHandThumb1
						{
							OFFSET 0.00000 0.00000 0.00000
							CHANNELS 3 Xrotation Zrotation Yrotation
							End Site
							{
								OFFSET 0.00000 0.00000 3.93700
							}
						}
					}
				}
			}
		}
		JOINT Head
		{
			OFFSET 0.00000 19.25010 0.00000
			CHANNELS 3 Xrotation Yrotation Zrotation
			End Site
			{
				OFFSET 0.00000 4.52755 0.00000
			}
		}
	}
}
MOTION
Frames: 23
Frame Time: 0.008333
 -7.1836 32.7062 -5.1940 44.9347 2.4245 -1.0513 -36.8309 -9.7589 -0.7319 -5.6300 -0.0000 -0.0000 -6.6854 -8.4053 17.9428 18.0320 -0.0000 0.0000 -38.8436 4.1009 -0.6799 -1.1449 0.0000 0.0000 -8.6399 1.0733 -8.5287 9.6616 0.0000 -0.0000 -47.9594 2.8297 -1.4948 -25.6936 -1.2343 -43.7320 9.6524 10.6126 40.0412 -7.5014 0.0000 -5.4948 -0.9241 7.5159 7.0304 32.8623 0.0000 -24.3270 -6.8436 11.6890 42.5608 -24.0373 -7.4687 -35.4013 4.1924 0.0000 16.3576 1.6075 25.6522 -3.7092 33.1476 -0.0000 26.2537 8.6177 1.1133 6.4889
 -7.1786 32.7085 -5.2028 44.9988 2.4904 -1.0974 -36.8808 -9.8943 -0.7361 -5.6761 0.0000 0.0000 -6.6321 -8.3897 17.9272 17.9031 0.0000 0.0000 -38.9875 3.9718 -0.7004 -1.0258 -0.0000 -0.0000 -8.7496 1.2545 -8.5246 9.7340 0.0000 0.0000 -47.9362 2.8706 -1.4914 -25.6520 -1.2503 -43.6674 9.6928 10.7305 40.1709 -7.4381 0.0000 -5.5362 -0.9405 7.6190 7.0582 32.8623 0.0000 -24.3270 -6.7857 11.7556 42.5183 -24.0148 -7.4786 -35.4743 4.1461 0.0000 16.3721 1.5645 25.7139 -3.6020 33.1476 -0.0000 26.2537 8.5603 1.1665 6.3849
 -7.1737 32.7120 -5.2121 45.0720 2.5533 -1.1588 -36.9862 -10.1638 -0.7265 -5.6318 -0.0000 0.0000 -6.6257 -8.2769 17.9170 17.8222 0.0000 -0.0000 -39.1510 3.8234 -0.7070 -0.8927 0.0000 0.0000 -8.9073 1.5080 -8.6250 9.9756 -0.0000 0.0000 -47.9260 2.9148 -1.4687 -25.6241 -1.2600 -43.6114 9.6620 10.8222 40.3284 -7.4206 0.0000 -5.5490 -0.9339 7.7003 6.9365 32.8623 0.0000 -24.3270 -6.7340 11.7878 42.4557 -23.9419 -7.4978 -35.5341 4.1104 0.0000 16.2952 1.4963 25.6934 -3.4480 33.1476 -0.0000 26.2537 8.5110 1.2196 6.2672
 -7.1668 32.7141 -5.2218 45.1539 2.6224 -1.2025 -37.0599 -10.2826 -0.7346 -5.6726 -0.0000 0.0000 -6.5819 -8.2911 17.8500 17.6775 -0.0000 0.0000 -39.3291 3.7111 -0.7413 -0.7426 0.0000 0.0000 -9.0572 1.7582 -8.6366 10.3051 -0.0000 0.0000 -47.9169 2.9788 -1.4689 -25.5889 -1.2568 -43.5537 9.6694 10.8980 40.5009 -7.3845 0.0000 -5.5678 -0.8949 7.6215 6.7174 32.8623 0.0000 -24.3270 -6.7029 11.8200 42.4253 -23.8728 -7.5069 -35.6420 4.0542 0.0000 16.1871 1.3958 25.8661 -3.1967 33.1476 -0.0000 26.2537 8.4541 1.3100 6.1815
 -7.1589 32.7167 -5.2296 45.2267 2.6917 -1.2385 -37.1327 -10.4705 -0.7564 -5.7017 0.0000 0.0000 -6.5365 -8.2025 17.8256 17.5679 0.0000 0.0000 -39.4933 3.5982 -0.7845 -0.5902 0.0000 0.0000 -9.1791 1.9756 -8.4906 10.2858 -0.0000 -0.0000 -47.9056 3.0665 -1.4659 -25.6003 -1.2276 -43.4954 9.7094 10.9429 40.6810 -7.3228 0.0000 -5.5482 -0.8944 7.8997 6.4802 32.8623 0.0000 -24.3270 -6.6542 11.8404 42.3703 -23.8084 -7.4877 -35.7441 3.9565 0.0000 16.0941 1.3249 25.8223 -3.0393 33.1476 -0.0000 26.2537 8.4253 1.3646 6.0722
 -7.1505 32.7195 -5.2375 45.3137 2.7629 -1.2665 -37.2263 -10.6250 -0.7782 -5.7142 0.0000 0.0000 -6.5092 -8.2148 17.8057 17.4914 0.0000 0.0000 -39.6678 3.4512 -0.8386 -0.4275 -0.0000 -0.0000 -9.4057 2.2173 -8.3216 10.4685 -0.0000 -0.0000 -47.9045 3.1553 -1.4791 -25.5604 -1.2490 -43.4154 9.6567 10.9960 40.8625 -7.2752 0.0000 -5.6390 -0.8909 8.0627 6.3269 32.8623 0.0000 -24.3270 -6.6304 11.8833 42.3296 -23.8513 -7.4535 -35.8685 3.9225 0.0000 16.1056 1.2656 25.6877 -2.9177 33.1476 -0.0000 26.2537 8.3820 1.4284 5.9846
 -7.1418 32.7217 -5.2450 45.3888 2.8450 -1.2990 -37.2764 -10.7257 -0.8055 -5.7901 -0.0000 0.0000 -6.4572 -8.2587 17.7399 17.4767 -0.0000 0.0000 -39.8311 3.3138 -0.8981 -0.2742 -0.0000 0.0000 -9.5811 2.5097 -7.9589 10.6668 0.0000 -0.0000 -47.8912 3.2191 -1.4907 -25.5637 -1.2230 -43.3332 9.6442 11.0684 41.0622 -7.2290 0.0000 -5.6188 -0.8692 8.1899 6.0792 32.8623 0.0000 -24.3270 -6.6213 11.9251 42.2777 -23.9599 -7.3455 -35.9853 3.8911 0.0000 16.1596 1.2663 25.6486 -2.9234 33.1476 -0.0000 26.2537 8.3504 1.5259 5.8750
 -7.1325 32.7237 -5.2504 45.4509 2.9180 -1.3486 -37.3389 -10.9781 -0.8137 -5.8043 0.0000 -0.0000 -6.4234 -8.1423 17.7493 17.4359 0.0000 -0.0000 -40.0063 3.3436 -0.9374 -0.0446 0.0000 0.0000 -9.8120 2.7332 -7.4126 10.6892 -0.0000 0.0000 -47.8771 3.2756 -1.4821 -25.5366 -1.1550 -43.2433 9.6819 11.1170 41.2712 -7.1209 0.0000 -5.5820 -0.8443 8.1291 5.9500 32.8623 0.0000 -24.3270 -6.6152 11.9565 42.2199 -24.1275 -7.2155 -36.1073 3.9208 0.0000 16.3293 1.2310 25.4949 -2.8580 33.1476 -0.0000 26.2537 8.3468 1.6245 5.7524
 -7.1243 32.7254 -5.2530 45.5184 2.9882 -1.3876 -37.3839 -11.1716 -0.8265 -5.8543 0.0000 0.0000 -6.3996 -8.0952 17.7503 17.4444 -0.0000 -0.0000 -40.1453 3.3196 -0.9796 0.1231 0.0000 0.0000 -10.0414 3.2613 -7.0018 10.9476 -0.0000 -0.0000 -47.8749 3.3616 -1.4834 -25.4793 -1.1479 -43.1704 9.6698 11.2104 41.5245 -7.0324 0.0000 -5.5065 -0.8165 8.0008 5.8466 32.8623 0.0000 -24.3270 -6.5933 11.9910 42.1791 -24.1392 -7.1866 -36.2499 3.8591 0.0000 16.3551 1.1850 26.1961 -2.6828 33.1476 -0.0000 26.2537 8.3496 1.7076 5.6259
 -7.1143 32.7268 -5.2552 45.5820 3.0571 -1.4246 -37.4136 -11.3205 -0.8441 -5.9238 -0.0000 -0.0000 -6.3486 -8.0693 17.7533 17.4512 0.0000 -0.0000 -40.2639 3.3261 -1.0373 0.2964 0.0000 -0.0000 -10.2877 3.9938 -6.2112 10.8738 -0.0000 -0.0000 -47.8695 3.4574 -1.4785 -25.4210 -1.1304 -43.0777 9.6770 11.3218 41.7264 -7.0149 0.0000 -5.5528 -0.8419 8.1706 5.9033 32.8623 0.0000 -24.3270 -6.5616 12.0321 42.1324 -24.2214 -7.1551 -36.4068 3.8475 0.0000 16.4385 1.1482 26.8488 -2.5410 33.1476 -0.0000 26.2537 8.3649 1.7935 5.4944
 -7.1066 32.7285 -5.2542 45.6551 3.1091 -1.4669 -37.4558 -11.5171 -0.8432 -5.9763 0.0000 0.0000 -6.3034 -8.0077 17.7927 17.5148 0.0000 -0.0000 -40.3724 3.4638 -1.0597 0.4319 0.0000 -0.0000 -10.5380 4.8104 -5.8027 11.3708 -0.0000 0.0000 -47.8838 3.5704 -1.4734 -25.3353 -1.1195 -42.9722 9.6702 11.3642 41.9715 -6.9050 0.0000 -5.4418 -0.8071 8.1026 5.7074 32.8623 0.0000 -24.3270 -6.5326 12.0411 42.0989 -24.2378 -7.1053 -36.5467 3.8581 0.0000 16.5177 1.1488 26.9964 -2.5294 33.1476 -0.0000 26.2537 8.3822 1.8551 5.3807
 -7.0967 32.7301 -5.2511 45.7202 3.1653 -1.4900 -37.4825 -11.6889 -0.8703 -6.0434 0.0000 -0.0000 -6.2421 -7.9074 17.8425 17.4405 -0.0000 -0.0000 -40.4043 3.6043 -1.1057 0.4224 -0.0000 0.0000 -10.6784 5.7516 -5.2549 11.6707 -0.0000 0.0000 -47.8969 3.6827 -1.4769 -25.2654 -1.0791 -42.8535 9.6581 11.4222 42.1985 -6.8811 0.0000 -5.5133 -0.8607 8.2972 5.9432 32.8623 0.0000 -24.3270 -6.5013 12.0562 42.0579 -24.2532 -7.0648 -36.6799 3.8902 0.0000 16.5526 1.2246 27.1307 -2.6839 33.1476 -0.0000 26.2537 8.4243 1.9985 5.2507
 -7.0872 32.7308 -5.2466 45.7750 3.2047 -1.5286 -37.4878 -11.8494 -0.8618 -6.1250 -0.0000 -0.0000 -6.1753 -7.8777 17.8849 17.5266 -0.0000 -0.0000 -40.5066 4.3649 -1.1188 0.5680 0.0000 -0.0000 -10.9464 6.1801 -5.0480 13.5751 -0.0000 0.0000 -47.9002 3.7974 -1.4557 -25.1960 -1.0466 -42.7552 9.6297 11.4952 42.4661 -6.8607 0.0000 -5.6323 -0.8979 8.4934 6.0573 32.8623 0.0000 -24.3270 -6.4534 12.0890 42.0077 -24.1926 -7.0940 -36.8076 3.9260 0.0000 16.4616 1.2201 27.1296 -2.6741 33.1476 -0.0000 26.2537 8.4501 2.1270 5.1058
 -7.0746 32.7314 -5.2409 45.8434 3.2686 -1.5549 -37.5023 -11.9785 -0.8790 -6.2124 -0.0000 -0.0000 -6.1466 -7.9348 17.9138 17.6745 0.0000 0.0000 -40.5618 4.9189 -1.1712 0.6535 0.0000 -0.0000 -11.2617 6.7133 -4.3118 13.3319 0.0000 -0.0000 -47.9213 3.9272 -1.4549 -25.0902 -1.0066 -42.6613 9.6307 11.5045 42.7423 -6.7476 0.0000 -5.7817 -0.9056 8.4190 6.1622 32.8623 0.0000 -24.3270 -6.3856 12.1090 41.9495 -24.0924 -7.1396 -36.9304 3.9359 0.0000 16.3662 1.2867 27.0882 -2.8238 33.1476 -0.0000 26.2537 8.4864 2.2264 4.9637
 -7.0607 32.7320 -5.2347 45.9171 3.3297 -1.5898 -37.5438 -12.1923 -0.8967 -6.2634 -0.0000 -0.0000 -6.0831 -7.8543 17.8951 17.5968 0.0000 -0.0000 -40.6103 5.4594 -1.2154 0.7488 -0.0000 0.0000 -11.4927 7.0933 -3.8175 12.3385 0.0000 -0.0000 -47.9495 4.0484 -1.4432 -24.9854 -1.0174 -42.5511 9.5597 11.5707 43.0037 -6.6794 0.0000 -5.9072 -0.9274 8.6044 6.1752 32.8623 0.0000 -24.3270 -6.3245 12.1397 41.8900 -24.0804 -7.1417 -37.0723 3.9795 0.0000 16.3656 1.3348 27.2667 -2.9115 33.1476 -0.0000 26.2537 8.5312 2.3500 4.8029
 -7.0470 32.7327 -5.2276 46.0073 3.4044 -1.6472 -37.5967 -12.3755 -0.9090 -6.3039 0.0000 0.0000 -6.0706 -7.8607 18.0194 17.7223 0.0000 0.0000 -40.6519 5.9975 -1.2686 0.7654 0.0000 0.0000 -11.7162 7.4423 -3.2127 12.0526 -0.0000 0.0000 -47.9957 4.1497 -1.4307 -24.9297 -0.9424 -42.4364 9.5943 11.6026 43.2875 -6.5985 0.0000 -5.9994 -0.9151 8.5903 6.1039 32.8623 0.0000 -24.3270 -6.2647 12.1751 41.8255 -24.1375 -7.1056 -37.1890 4.0902 0.0000 15.9485 1.6956 24.1087 -4.1450 33.1476 -0.0000 26.2537 8.5696 2.4849 4.6401
 -7.0325 32.7339 -5.2200 46.1015 3.4884 -1.7068 -37.6584 -12.5605 -0.9256 -6.3335 0.0000 -0.0000 -6.0426 -7.8422 17.9920 17.7496 -0.0000 0.0000 -40.6900 6.5110 -1.3221 0.7839 0.0000 -0.0000 -11.9013 7.7243 -2.9390 11.4684 -0.0000 -0.0000 -48.0409 4.2463 -1.4247 -24.8490 -0.9172 -42.3491 9.5504 11.6594 43.6243 -6.5260 0.0000 -6.1557 -0.9107 8.2040 6.3563 32.8623 0.0000 -24.3270 -6.2288 12.2204 41.7713 -24.1709 -7.0912 -37.3476 4.1298 0.0000 15.9072 1.6706 23.8993 -4.1178 33.1476 -0.0000 26.2537 8.6044 2.6299 4.4850
 -7.0162 32.7342 -5.2107 46.2159 3.6210 -1.8113 -37.7295 -12.7760 -0.9415 -6.3587 0.0000 -0.0000 -6.0255 -7.8610 17.9522 17.7137 0.0000 -0.0000 -40.7538 6.9727 -1.3821 0.7996 -0.0000 0.0000 -12.1383 7.9937 -2.4236 11.0190 -0.0000 -0.0000 -48.1111 4.2987 -1.4158 -24.7744 -0.8956 -42.2675 9.4481 11.6796 43.9624 -6.5522 0.0000 -6.2305 -0.9089 8.4928 6.1311 32.8623 0.0000 -24.3270 -6.2094 12.2434 41.7100 -24.2020 -7.0283 -37.4959 4.1027 0.0000 15.8833 1.7832 24.0689 -4.3654 33.1476 -0.0000 26.2537 8.6282 2.7271 4.3221
 -7.0002 32.7347 -5.2002 46.3216 3.7676 -1.9396 -37.7950 -13.0296 -0.9466 -6.3616 0.0000 0.0000 -6.0292 -7.8675 17.9112 17.6843 0.0000 -0.0000 -40.8095 7.4240 -1.4390 0.7878 0.0000 -0.0000 -12.1512 8.2655 -1.9489 10.5343 -0.0000 0.0000 -48.1706 4.3221 -1.3985 -24.6290 -0.9369 -42.1665 9.3049 11.7135 44.2702 -6.4896 0.0000 -6.2879 -0.9308 8.5505 6.2363 32.8623 0.0000 -24.3270 -6.1991 12.2646 41.6326 -24.1553 -7.0643 -37.6296 4.1525 0.0000 15.7598 1.7135 23.9494 -4.2149 33.1476 -0.0000 26.2537 8.6654 2.9028 4.1227
 -6.9814 32.7348 -5.1918 46.4129 3.9465 -2.1250 -37.8487 -13.3659 -0.9327 -6.3434 0.0000 0.0000 -6.0385 -7.8631 17.8842 17.7384 -0.0000 0.0000 -40.9066 7.9580 -1.4782 0.9016 -0.0000 -0.0000 -12.3911 8.4514 -1.4866 9.9597 -0.0000 0.0000 -48.2030 4.2720 -1.3470 -24.5851 -0.9211 -42.0589 9.2261 11.7986 44.5577 -6.5204 0.0000 -6.2696 -0.9397 8.5744 6.2780 32.8623 0.0000 -24.3270 -6.1916 12.3137 41.5279 -24.2053 -7.0397 -37.7536 4.1492 0.0000 15.6948 1.7281 23.8256 -4.2713 33.1476 -0.0000 26.2537 8.6749 3.0250 3.9209
 -6.9637 32.7353 -5.1796 46.5129 4.1305 -2.2964 -37.8689 -13.5050 -0.9359 -6.3860 0.0000 0.0000 -6.0248 -8.0192 17.8348 17.7198 -0.0000 0.0000 -40.9819 8.5122 -1.5281 0.9539 -0.0000 0.0000 -12.5676 8.5746 -1.0488 9.6962 -0.0000 0.0000 -48.2484 4.2728 -1.3327 -24.5516 -0.9037 -41.9709 9.1697 11.8350 44.9054 -6.5513 0.0000 -6.2835 -0.9507 8.5215 6.3900 32.8623 0.0000 -24.3270 -6.2070 12.3324 41.4728 -24.2811 -6.9777 -37.9210 4.1709 0.0000 15.8224 1.7302 23.7557 -4.2884 33.1476 -0.0000 26.2537 8.6756 3.1627 3.7651
 -6.9450 32.7368 -5.1685 46.6120 4.3547 -2.5030 -37.8970 -13.7165 -0.9404 -6.4115 0.0000 0.0000 -6.0009 -8.1849 17.7611 17.7253 -0.0000 -0.0000 -41.0466 8.9791 -1.5689 0.9745 -0.0000 -0.0000 -12.7065 8.8243 -1.0472 10.2048 -0.0000 -0.0000 -48.2965 4.2614 -1.3164 -24.4546 -0.9772 -41.8586 8.9923 11.8160 45.2028 -6.5631 0.0000 -6.2375 -0.9732 8.6983 6.4088 32.8623 0.0000 -24.3270 -6.1617 12.3269 41.4049 -24.1177 -7.0905 -38.0769 4.1161 0.0000 15.5661 1.7365 23.6404 -4.3236 33.1476 -0.0000 26.2537 8.7129 3.2369 3.5861
 -6.9262 32.7371 -5.1560 46.7099 4.5981 -2.7267 -37.9200 -13.8888 -0.9422 -6.4145 0.0000 0.0000 -6.0322 -8.4329 17.7772 17.8105 -0.0000 0.0000 -41.1116 9.4236 -1.6104 0.9734 -0.0000 0.0000 -12.7030 9.0688 -0.9319 9.7453 0.0000 -0.0000 -48.3334 4.2341 -1.3067 -24.4122 -0.9328 -41.7542 9.0520 11.7525 45.5108 -6.4496 0.0000 -6.3213 -0.9638 8.5007 6.4928 32.8623 0.0000 -24.3270 -6.1478 12.3238 41.3313 -24.2489 -7.0059 -38.2423 4.1317 0.0000 15.8200 1.6842 23.5201 -4.2140 33.1476 -0.0000 26.2537 8.7156 3.2926 3.4214
